<svg xmlns="http://www.w3.org/2000/svg" viewBox="0 0 827.7 210"><defs><style>.cls-1{fill:#e53935;}.cls-2{fill:none;stroke:#e53935;stroke-miterlimit:10;stroke-width:10px;}</style></defs><g id="Layer_1" data-name="Layer 1"><path class="cls-1" d="M535.52,392a34.53,34.53,0,0,1-16.32-4.56,52.38,52.38,0,0,1-12.64-10V416a5,5,0,1,1-9.92,0V353.12a38.32,38.32,0,0,1,3-15.36A37.53,37.53,0,0,1,508,325.6a38.65,38.65,0,0,1,27.2-10.88,37.86,37.86,0,0,1,15.2,3,38.42,38.42,0,0,1,12.24,8.32,40.21,40.21,0,0,1,8.24,12.24,37.68,37.68,0,0,1-.08,29.84,40.34,40.34,0,0,1-20.64,20.72A35.39,35.39,0,0,1,535.52,392Zm-29-38.88a29.42,29.42,0,0,0,2.56,11.52,30.75,30.75,0,0,0,6.24,9.12,27.94,27.94,0,0,0,19.84,8.16,28.83,28.83,0,0,0,20.4-8.4,28.87,28.87,0,0,0,6.16-9.2,28.43,28.43,0,0,0,2.24-11.2A27.86,27.86,0,0,0,561.76,342a29.31,29.31,0,0,0-6.16-9.12,28.83,28.83,0,0,0-20.4-8.4,27.83,27.83,0,0,0-11.12,2.24A28.93,28.93,0,0,0,508.8,342,27.86,27.86,0,0,0,506.56,353.12Z" transform="translate(-267 -250)"/><path class="cls-1" d="M578.72,352.8a37.33,37.33,0,0,1,3-14.8,38.92,38.92,0,0,1,20.24-20.56,38.11,38.11,0,0,1,14.72-3.2,5.71,5.71,0,0,1,4.08,1.44,4.84,4.84,0,0,1,0,7,5.71,5.71,0,0,1-4.08,1.44,28.14,28.14,0,0,0-10.88,2.48,30.11,30.11,0,0,0-9,6.16,27.69,27.69,0,0,0-6,9,28.3,28.3,0,0,0-2.16,11V387a5,5,0,1,1-9.92,0Z" transform="translate(-267 -250)"/><path class="cls-1" d="M656,314.56a35.39,35.39,0,0,1,14.64,3.12,40.34,40.34,0,0,1,20.64,20.72,37.68,37.68,0,0,1,.08,29.84,40.4,40.4,0,0,1-8.24,12.24,38.42,38.42,0,0,1-12.24,8.32,37.89,37.89,0,0,1-15.2,3A38.65,38.65,0,0,1,628.48,381a37.16,37.16,0,0,1-8.32-12.16,38.25,38.25,0,0,1-3-15.36,38,38,0,0,1,11.12-27.12A39.77,39.77,0,0,1,640.56,318,42,42,0,0,1,656,314.56Zm-29,38.88a27.66,27.66,0,0,0,2.24,11.12,28.93,28.93,0,0,0,15.28,15.28,27.83,27.83,0,0,0,11.12,2.24,28.43,28.43,0,0,0,11.2-2.24,28.72,28.72,0,0,0,15.36-15.28,27.83,27.83,0,0,0,2.24-11.12,28.46,28.46,0,0,0-2.24-11.2,28.51,28.51,0,0,0-15.36-15.36,28.43,28.43,0,0,0-11.2-2.24,27.83,27.83,0,0,0-11.12,2.24,29.08,29.08,0,0,0-9.12,6.16,28.83,28.83,0,0,0-8.4,20.4Z" transform="translate(-267 -250)"/><path class="cls-1" d="M737.6,314.56a34.6,34.6,0,0,1,16.32,4.56,52.82,52.82,0,0,1,12.64,10V293.76a5,5,0,1,1,9.92,0v59.68a38.42,38.42,0,0,1-3,15.36A37.32,37.32,0,0,1,765.12,381a38.3,38.3,0,0,1-12.32,8,39,39,0,0,1-14.88,2.88,38.17,38.17,0,0,1-27.44-11.36,40,40,0,0,1-8.24-12.24,37.68,37.68,0,0,1,.08-29.84A40.34,40.34,0,0,1,723,317.68,35.39,35.39,0,0,1,737.6,314.56Zm29,38.88a32.82,32.82,0,0,0-2.64-11.52,29.63,29.63,0,0,0-6.16-9.12,27.94,27.94,0,0,0-19.84-8.16,28.43,28.43,0,0,0-11.2,2.24,28.87,28.87,0,0,0-9.2,6.16,28.83,28.83,0,0,0-8.4,20.4,27.66,27.66,0,0,0,2.24,11.12,28.72,28.72,0,0,0,15.36,15.28,28.43,28.43,0,0,0,11.2,2.24A27.9,27.9,0,0,0,749,379.84a28.93,28.93,0,0,0,15.28-15.28A27.83,27.83,0,0,0,766.56,353.44Z" transform="translate(-267 -250)"/><path class="cls-1" d="M824.48,314.56a35.39,35.39,0,0,1,14.64,3.12,40.34,40.34,0,0,1,20.64,20.72,37.68,37.68,0,0,1,.08,29.84,40.4,40.4,0,0,1-8.24,12.24,38.42,38.42,0,0,1-12.24,8.32,37.89,37.89,0,0,1-15.2,3A38.65,38.65,0,0,1,797,381a37.16,37.16,0,0,1-8.32-12.16,38.25,38.25,0,0,1-3-15.36V293.6a5,5,0,1,1,9.92,0v35.52a52.62,52.62,0,0,1,12.64-10A34.53,34.53,0,0,1,824.48,314.56Zm-29,38.88a27.66,27.66,0,0,0,2.24,11.12A28.93,28.93,0,0,0,813,379.84a27.83,27.83,0,0,0,11.12,2.24,28.46,28.46,0,0,0,11.2-2.24,28.72,28.72,0,0,0,15.36-15.28A27.83,27.83,0,0,0,853,353.44a28.46,28.46,0,0,0-2.24-11.2,28.51,28.51,0,0,0-15.36-15.36,28.46,28.46,0,0,0-11.2-2.24,27.94,27.94,0,0,0-19.84,8.16,30.75,30.75,0,0,0-6.24,9.12A29.25,29.25,0,0,0,795.52,353.44Z" transform="translate(-267 -250)"/><path class="cls-1" d="M942.88,416a5,5,0,1,1-9.92,0V379.2a38.66,38.66,0,0,1-12.64,9.36,38.83,38.83,0,0,1-31,.4,38.49,38.49,0,0,1-20.48-20.48,37.47,37.47,0,0,1-3-15V319.2a5,5,0,1,1,9.92,0v34.24a27.66,27.66,0,0,0,2.24,11.12,28.93,28.93,0,0,0,15.28,15.28,28.6,28.6,0,0,0,22,.08,29.16,29.16,0,0,0,9-5.84,28.39,28.39,0,0,0,6.16-8.72,29.77,29.77,0,0,0,2.64-10.8V319.2a5,5,0,1,1,9.92,0V416Z" transform="translate(-267 -250)"/><path class="cls-1" d="M953.11,293.6a5,5,0,1,1,9.92,0v35.52l48.64-38.88a5,5,0,0,1,7,7l-48.64,38.88,48.64,47.52a5,5,0,0,1-7,7L963,343.52V387a5,5,0,1,1-9.92,0Z" transform="translate(-267 -250)"/><path class="cls-1" d="M1034.55,354.88a26.15,26.15,0,0,0,2.16,10.56,27.46,27.46,0,0,0,14.48,14.48,27.32,27.32,0,0,0,24.48-1.6,27.3,27.3,0,0,0,9.76-9.84,5,5,0,0,1,3.12-2.24,5.1,5.1,0,0,1,3.76.48,5,5,0,0,1,2.24,3.2,5.29,5.29,0,0,1-.63,4A36.36,36.36,0,0,1,1080.55,387a37.13,37.13,0,0,1-55.92-32.16v-29a37.12,37.12,0,0,1,10.8-26.32,38.18,38.18,0,0,1,11.84-8,37,37,0,0,1,33.28,2.16,37.12,37.12,0,0,1,13.37,13.44,5.62,5.62,0,0,1,.55,3.84,4.62,4.62,0,0,1-2.16,3.2,5.1,5.1,0,0,1-3.76.48,5.42,5.42,0,0,1-3.28-2.4,28,28,0,0,0-9.76-9.92,25.73,25.73,0,0,0-13.76-3.84,26.18,26.18,0,0,0-10.56,2.16,27.19,27.19,0,0,0-8.64,5.92,29,29,0,0,0-5.84,8.72,26.18,26.18,0,0,0-2.16,10.56Z" transform="translate(-267 -250)"/><circle class="cls-2" cx="105" cy="105" r="100"/></g><g id="Cut_out" data-name="Cut out"><polygon class="cls-1" points="133 102.5 104 70.5 75 102.5 46 70.5 46 146 162 146 162 70.5 133 102.5"/><circle class="cls-1" cx="46" cy="61" r="5"/><circle class="cls-1" cx="162" cy="61" r="5"/><circle class="cls-1" cx="104" cy="61" r="5"/></g></svg>