<svg xmlns="http://www.w3.org/2000/svg" viewBox="0 0 848.32 210"><defs><style>.cls-1{fill:none;stroke:#e23a37;stroke-miterlimit:10;stroke-width:10px;}.cls-2{fill:#e23a37;}</style></defs><g id="Layer_1" data-name="Layer 1"><circle class="cls-1" cx="105" cy="105" r="100"/><path class="cls-2" d="M541.59,392.52A34.76,34.76,0,0,1,525.27,388a52.62,52.62,0,0,1-12.64-10v38.56a5,5,0,1,1-9.92,0V353.64a38.25,38.25,0,0,1,3-15.36,37.16,37.16,0,0,1,8.32-12.16,38.65,38.65,0,0,1,27.2-10.88,38.17,38.17,0,0,1,27.44,11.36A40.4,40.4,0,0,1,577,338.84a37.68,37.68,0,0,1-.08,29.84,40.34,40.34,0,0,1-20.64,20.72A35.39,35.39,0,0,1,541.59,392.52Zm-29-38.88a29.25,29.25,0,0,0,2.56,11.52,30.75,30.75,0,0,0,6.24,9.12,27.94,27.94,0,0,0,19.84,8.16,28.46,28.46,0,0,0,11.2-2.24,28.51,28.51,0,0,0,15.36-15.36,28.46,28.46,0,0,0,2.24-11.2,27.83,27.83,0,0,0-2.24-11.12,29.08,29.08,0,0,0-6.16-9.12,28.65,28.65,0,0,0-9.2-6.16,28.29,28.29,0,0,0-11.2-2.24,27.66,27.66,0,0,0-11.12,2.24,28.93,28.93,0,0,0-15.28,15.28A27.66,27.66,0,0,0,512.63,353.64Z" transform="translate(-267 -250)"/><path class="cls-2" d="M586.87,353.32a37.29,37.29,0,0,1,3-14.8A38.92,38.92,0,0,1,610.07,318a37.75,37.75,0,0,1,14.72-3.2,5.71,5.71,0,0,1,4.08,1.44,4.84,4.84,0,0,1,0,7,5.71,5.71,0,0,1-4.08,1.44,27.78,27.78,0,0,0-10.88,2.48,29.93,29.93,0,0,0-9,6.16,27.59,27.59,0,0,0-6,9,28.26,28.26,0,0,0-2.16,11v34.24a5,5,0,1,1-9.92,0Z" transform="translate(-267 -250)"/><path class="cls-2" d="M666.23,315.08a35.43,35.43,0,0,1,14.64,3.12,40.93,40.93,0,0,1,12.24,8.4,40.28,40.28,0,0,1,8.39,12.32,37.57,37.57,0,0,1,.08,29.84A40,40,0,0,1,693.34,381a38.12,38.12,0,0,1-27.43,11.36,38.65,38.65,0,0,1-27.2-10.88,37.37,37.37,0,0,1-8.32-12.16,38.32,38.32,0,0,1-3-15.36,38,38,0,0,1,11.12-27.12,39.66,39.66,0,0,1,12.32-8.32A42,42,0,0,1,666.23,315.08Zm-29,38.88a27.73,27.73,0,0,0,2.24,11.12,28.93,28.93,0,0,0,15.28,15.28,27.83,27.83,0,0,0,11.12,2.24,28.5,28.5,0,0,0,11.2-2.24,28.66,28.66,0,0,0,15.35-15.28A27.73,27.73,0,0,0,694.71,354a28.26,28.26,0,0,0-2.25-11.2,28.45,28.45,0,0,0-15.35-15.36,28.32,28.32,0,0,0-11.2-2.24,27.66,27.66,0,0,0-11.12,2.24,28.72,28.72,0,0,0-15.28,15.36A28.25,28.25,0,0,0,637.27,354Z" transform="translate(-267 -250)"/><path class="cls-2" d="M749.9,315.08a34.53,34.53,0,0,1,16.32,4.56,52.38,52.38,0,0,1,12.64,10V294.28a5,5,0,1,1,9.92,0V354a38.32,38.32,0,0,1-3,15.36,37.37,37.37,0,0,1-8.32,12.16,38.36,38.36,0,0,1-12.32,8,38.89,38.89,0,0,1-14.88,2.88A38.17,38.17,0,0,1,722.78,381a40.4,40.4,0,0,1-8.24-12.24,37.68,37.68,0,0,1,.08-29.84,40.34,40.34,0,0,1,20.64-20.72A35.39,35.39,0,0,1,749.9,315.08Zm29,38.88a32.39,32.39,0,0,0-2.64-11.52,29.45,29.45,0,0,0-6.16-9.12,27.94,27.94,0,0,0-19.84-8.16A28.29,28.29,0,0,0,739,327.4,28.72,28.72,0,0,0,721.42,354a27.9,27.9,0,0,0,2.24,11.12,29.31,29.31,0,0,0,6.16,9.12,29,29,0,0,0,9.2,6.16,28.46,28.46,0,0,0,11.2,2.24,27.83,27.83,0,0,0,11.12-2.24,28.93,28.93,0,0,0,15.28-15.28A27.73,27.73,0,0,0,778.86,354Z" transform="translate(-267 -250)"/><path class="cls-2" d="M838.86,315.08a35.39,35.39,0,0,1,14.64,3.12,40.34,40.34,0,0,1,20.64,20.72,37.68,37.68,0,0,1,.08,29.84A40.21,40.21,0,0,1,866,381a38.42,38.42,0,0,1-12.24,8.32,38,38,0,0,1-15.2,3,38.65,38.65,0,0,1-27.2-10.88A37.53,37.53,0,0,1,803,369.32,38.32,38.32,0,0,1,800,354V294.12a5,5,0,1,1,9.92,0v35.52a52.38,52.38,0,0,1,12.64-10A34.6,34.6,0,0,1,838.86,315.08ZM809.9,354a27.9,27.9,0,0,0,2.24,11.12,28.93,28.93,0,0,0,15.28,15.28,27.86,27.86,0,0,0,11.12,2.24,28.43,28.43,0,0,0,11.2-2.24,28.72,28.72,0,0,0,15.36-15.28A27.9,27.9,0,0,0,867.34,354a28.72,28.72,0,0,0-28.8-28.8,27.94,27.94,0,0,0-19.84,8.16,30.75,30.75,0,0,0-6.24,9.12A29.42,29.42,0,0,0,809.9,354Z" transform="translate(-267 -250)"/><path class="cls-2" d="M959.34,416.52a5,5,0,1,1-9.92,0v-36.8a38.84,38.84,0,0,1-12.64,9.36,38.83,38.83,0,0,1-31,.4A38.49,38.49,0,0,1,885.26,369a37.51,37.51,0,0,1-3-15V319.72a5,5,0,1,1,9.92,0V354a27.9,27.9,0,0,0,2.24,11.12,28.93,28.93,0,0,0,15.28,15.28,28.6,28.6,0,0,0,22,.08,29.34,29.34,0,0,0,9-5.84,28.51,28.51,0,0,0,6.16-8.72,29.37,29.37,0,0,0,2.64-10.8V319.72a5,5,0,1,1,9.92,0v96.8Z" transform="translate(-267 -250)"/><path class="cls-2" d="M971.66,294.12a5,5,0,1,1,9.92,0v35.52l48.64-38.88a5,5,0,0,1,7,7l-48.64,38.88,48.64,47.52a5,5,0,0,1-7,7L981.58,344v43.52a5,5,0,1,1-9.92,0Z" transform="translate(-267 -250)"/><path class="cls-2" d="M1055.18,355.4a26.18,26.18,0,0,0,2.16,10.56,27.46,27.46,0,0,0,14.48,14.48,26.18,26.18,0,0,0,10.56,2.16,26.51,26.51,0,0,0,13.92-3.76,27.46,27.46,0,0,0,9.76-9.84,4.94,4.94,0,0,1,3.12-2.24,5.11,5.11,0,0,1,3.76.48,5,5,0,0,1,2.24,3.2,5.3,5.3,0,0,1-.64,4,36.26,36.26,0,0,1-13.36,13.12,37.13,37.13,0,0,1-55.92-32.16v-29a37.12,37.12,0,0,1,10.8-26.32,38,38,0,0,1,11.84-8,37,37,0,0,1,33.28,2.16,37,37,0,0,1,13.36,13.44,5.56,5.56,0,0,1,.56,3.84,4.73,4.73,0,0,1-2.16,3.2,5.11,5.11,0,0,1-3.76.48,5.4,5.4,0,0,1-3.28-2.4,28,28,0,0,0-9.76-9.92,25.75,25.75,0,0,0-13.76-3.84,26.18,26.18,0,0,0-10.56,2.16,27,27,0,0,0-8.64,5.92,28.7,28.7,0,0,0-5.84,8.72,26.11,26.11,0,0,0-2.16,10.56Z" transform="translate(-267 -250)"/></g><g id="Cut_out" data-name="Cut out"><polygon class="cls-2" points="133 102.5 104 70.5 75 102.5 46 70.5 46 146 162 146 162 70.5 133 102.5"/><circle class="cls-2" cx="46" cy="61" r="5"/><circle class="cls-2" cx="162" cy="61" r="5"/><circle class="cls-2" cx="104" cy="61" r="5"/></g></svg>